<?xml version="1.0" encoding="UTF-8"?>
<!DOCTYPE svg PUBLIC "-//W3C//DTD SVG 1.1//EN" "http://www.w3.org/Graphics/SVG/1.1/DTD/svg11.dtd">
<!-- Creator: CorelDRAW -->
<svg xmlns="http://www.w3.org/2000/svg" xml:space="preserve" width="1842px" height="670px" version="1.1" style="shape-rendering:geometricPrecision; text-rendering:geometricPrecision; image-rendering:optimizeQuality; fill-rule:evenodd; clip-rule:evenodd"
viewBox="0 0 3386.248 1232.205"
 xmlns:xlink="http://www.w3.org/1999/xlink"
 xmlns:xodm="http://www.corel.com/coreldraw/odm/2003">
 <defs>
  <style type="text/css">
   <![CDATA[
    .fil0 {fill:#213CB1}
   ]]>
  </style>
 </defs>
 <g id="Camada_x0020_1">
  <metadata id="CorelCorpID_0Corel-Layer"/>
  <g id="_2422910117008">
   <path class="fil0" d="M447.754 0.445c-0.45,-0.038 -0.883,-0.062 -1.31,-0.058 -91.465,-3.794 -177.78,20.295 -258.112,76.839 -106.593,75.868 -179.259,200.792 -187.994,340.1 -0.113,135.418 -0.229,270.839 -0.338,406.261 31.844,36.987 66.604,51.144 102.44,52.179 43.465,-0.564 77.222,-17.873 105.414,-51.958 -0.46,-130.733 -0.632,-261.509 -0.16,-393.276 10.292,-108.752 104.612,-211.41 217.479,-210.051 98.437,0.365 209.694,71.501 228.364,212.601 0.054,130.604 0.11,261.206 0.167,391.809 26.381,31.772 59.758,48.215 99.753,50.93 38.643,-0.328 73.909,-13.827 103.669,-48.185 0.161,-132.627 -0.45,-264.818 -0.297,-397.44 9.514,-109.799 111.453,-210.761 223.362,-210.101 107.621,0.218 215.648,89.658 223.475,211.935 0.188,133.673 0.372,267.346 0.557,401.02 34.473,27.968 64.845,41.88 107.61,42.775 41.118,-0.667 80.878,-13.701 117.852,-52.252 -0.328,-135.264 -0.663,-270.487 -0.994,-405.755 -8.701,-85.301 -35.477,-161.738 -85.872,-229.789 -0.659,-1.55 -1.679,-2.91 -2.97,-3.962 -16.221,-21.435 -34.846,-42.218 -56.076,-62.513 -88.399,-77.818 -178.221,-116.639 -289.827,-121.397 -131.723,-1.038 -248.82,63.037 -338.655,154.129 -92.07,-89.842 -175.741,-147.995 -307.537,-153.841zm1545.446 214.326c125.583,0 227.394,101.809 227.394,227.392 0,125.582 -101.811,227.39 -227.394,227.39 -125.587,0 -227.389,-101.808 -227.389,-227.39 0,-125.583 101.802,-227.392 227.389,-227.392zm740.142 660.886c0,-68.943 0,-137.89 0,-206.834 40.167,-0.823 75.978,-10.344 107.86,-27.742 60.106,-38.431 101.45,-91.612 111.848,-169.107 7.131,-256.848 162.56,-466.338 433.198,-471.809 -0.007,74.345 -0.007,148.692 -0.007,223.034 -127.598,-0.048 -195.483,99.711 -207.206,216.491l-0.127 0.092c-18.809,240.6 -192.515,443.176 -445.566,435.875zm-1168.712 -380.106l-0.216 -0.007 -0.096 -3.391c-4.801,-54.915 -1.98,-119.292 15.668,-174.282 1.219,-3.808 2.463,-7.547 3.719,-11.229l0.068 -0.188c0.67,-1.967 1.342,-3.927 2.039,-5.88l0.003 0.003c29.867,-79.386 61.988,-131.215 131.758,-196.641 94.439,-80.475 195.083,-110.492 308.583,-101.753 15.197,1.441 30.171,3.613 44.934,6.509l-0.376 -0.147c2.134,0.437 4.296,0.902 6.485,1.394 47.897,10.104 93.449,28.004 136.374,54.051 79.035,48.852 135.702,110.614 172.545,183.806l0.007 -0.006 0.14 0.29 0.013 0.024 0.072 0.154 0.079 0.159 0.064 0.144 0.011 0.011 0.072 0.157 0.078 0.156 0.072 0.158 0.075 0.153 0.079 0.157 0.072 0.158 0.009 0.01 0.066 0.147 0.078 0.153 0.071 0.158 0.014 0.024 0.066 0.132 0.075 0.158 0.071 0.154 0.018 0.033 0.06 0.123 0.072 0.157 0.076 0.155 0.021 0.047 0.054 0.109 0.072 0.157 0.078 0.158 0.027 0.057 0.048 0.099 0.072 0.154 0.079 0.158 0.03 0.071 0.038 0.085 0.078 0.154 0.078 0.157 0.038 0.082 0.031 0.075 0.079 0.157 0.072 0.157 0.047 0.092 0.028 0.062 0.074 0.157 0.072 0.157 0.055 0.106 0.024 0.051 0.072 0.154 0.075 0.157 0.057 0.119 0.018 0.038 0.072 0.158 0.074 0.156 0.062 0.13 0.01 0.024 0.148 0.314 0.071 0.143 0.004 0.014 0.075 0.158 0.071 0.153 0.075 0.154 0.003 0.003 0.072 0.158 0.076 0.153 0.075 0.16 0.003 0.007 0.065 0.147 0.079 0.157 0.068 0.157 0.013 0.021 0.065 0.132 0.068 0.158 0.079 0.157 0.014 0.034 0.054 0.123 0.076 0.157 0.072 0.154 0.02 0.048 0.055 0.112 0.075 0.154 0.071 0.157 0.031 0.058 0.044 0.099c0.482,1.039 0.971,2.077 1.448,3.111l0.072 0.161 0.185 0.4 0.037 0.078 0.222 0.478 0.003 0.003 0.219 0.482 0.031 0.072 0.191 0.413 0.069 0.147 0.149 0.334 0.107 0.222 0.119 0.26 0.129 0.297 0.086 0.184 0.427 0.933 0.014 0.03 0.215 0.481 0.021 0.045 0.201 0.44 0.051 0.117 0.163 0.361 0.093 0.199 0.13 0.287 0.119 0.27 0.093 0.212 0.16 0.347 0.061 0.134 0.188 0.426 0.024 0.059 0.218 0.481 0.005 0.017 0.207 0.465 0.041 0.095 0.172 0.386 0.075 0.17 0.143 0.315 0.105 0.246 0.107 0.235 0.143 0.322 0.068 0.163 0.177 0.397 0.038 0.084 0.209 0.476 0.003 0.006 0.209 0.486 0.03 0.067 0.181 0.414 0.061 0.143 0.151 0.342 0.092 0.218 0.12 0.263 0.126 0.298 0.082 0.187 0.4 0.932 0.013 0.035 0.208 0.485 0.021 0.037 0.184 0.444 0.055 0.119 0.154 0.363 0.081 0.194 0.123 0.29 0.116 0.271 0.092 0.215 0.144 0.348 0.062 0.132c2.499,5.93 4.872,11.875 7.069,17.84l-0.155 0.017c0.39,1.073 0.772,2.144 1.159,3.22l0.167 -0.02c1.239,3.473 2.418,6.953 3.531,10.443l-0.12 0.024c12.427,37.622 20.544,77.73 24.629,120.16l0.061 82.599c0.068,1.151 0.109,2.309 0.109,3.477 0,1.137 -0.041,2.271 -0.102,3.391l0.129 178.33 0.117 0.136c0.079,57.404 0.15,118.45 0.229,175.854l-0.212 0 0 1.448c-75.087,-0.021 -150.164,-0.034 -225.247,-0.055 -0.058,-16.586 -0.117,-33.176 -0.168,-49.765 -15.65,6.704 -31.601,13.253 -48.433,19.362 -40.163,16.115 -83.45,24.939 -128.944,28.631 -75.462,3.514 -105.909,-0.819 -130.268,-6.215 -71.085,-14.957 -138.187,-44.517 -198.617,-98.537 -62.807,-54.461 -93.968,-113.129 -117.511,-171.101 -10.052,-21.268 -19.003,-58.749 -23.121,-102.607zm1124.147 333.004l-0.036 0.079c-28.908,31.57 -64.651,47.487 -109.462,46.91 -39.244,-3.446 -71.744,-19.779 -97.54,-51.265 -0.085,-257.801 -0.181,-515.598 -0.27,-773.399 25.592,-30.636 65.119,-50.732 105.223,-50.766l0.205 0.01c41.795,-0.007 71.641,15.093 101.82,45.814 0.013,260.875 0.06,521.746 0.06,782.617z"/>
   <path class="fil0" d="M664.683 1134.577c3.391,-18.984 10.17,-35.932 20.34,-50.51 9.831,-14.574 22.035,-26.1 36.611,-33.9 14.578,-7.795 29.832,-11.862 45.766,-11.862 13.898,0 25.762,2.711 35.594,8.475 9.489,5.761 16.609,12.881 21.015,21.357l4.747 -26.784 47.798 0 -33.22 187.804 -47.799 0 5.086 -27.46c-7.459,8.814 -16.953,15.934 -28.816,21.695 -11.863,6.102 -25.086,8.813 -38.984,8.813 -13.899,0 -26.1,-3.048 -36.611,-9.489 -10.508,-6.103 -18.984,-14.916 -24.745,-26.441 -5.765,-11.187 -8.814,-24.407 -8.814,-39.661 0,-7.12 0.676,-14.241 2.032,-22.037zm147.462 0.68c1.018,-5.764 1.356,-10.17 1.356,-12.881 0,-13.223 -3.729,-23.731 -11.525,-31.188 -7.797,-7.458 -17.628,-11.188 -29.492,-11.188 -8.813,0 -17.289,2.035 -25.427,6.441 -8.472,4.409 -15.592,10.507 -21.695,18.645 -6.101,8.476 -10.17,18.304 -12.201,29.491 -0.68,4.409 -1.017,8.476 -1.017,12.206 0,13.56 3.728,24.068 11.525,31.863 7.796,7.797 17.289,11.864 29.153,11.864 8.814,0 17.289,-2.37 25.762,-6.778 8.476,-4.406 15.595,-10.508 21.698,-18.984 5.761,-8.476 9.828,-18.304 11.863,-29.491zm151.191 96.948c-13.898,0 -26.102,-2.369 -37.29,-7.115 -11.187,-4.41 -20.001,-10.85 -26.441,-19.326 -6.442,-8.134 -9.829,-17.624 -9.829,-28.135 0,-1.694 0.339,-4.067 0.676,-7.797l46.105 0c-0.679,7.797 1.694,14.237 7.117,18.984 5.422,5.085 13.222,7.459 23.051,7.459 9.155,0 16.613,-1.695 22.712,-5.086 5.764,-3.049 8.814,-7.796 8.814,-14.237 0,-5.764 -2.711,-10.168 -8.135,-13.56 -5.764,-3.391 -14.577,-7.12 -26.441,-11.525 -11.864,-4.409 -22.033,-8.476 -29.833,-12.543 -7.796,-4.067 -14.575,-9.831 -20.339,-16.948 -5.761,-7.12 -8.473,-16.272 -8.473,-27.459 0,-11.187 3.389,-21.019 9.829,-29.494 6.441,-8.473 15.254,-15.256 26.783,-19.998 11.525,-4.747 24.744,-7.12 39.661,-7.12 14.237,0 26.779,2.373 37.628,7.12 10.847,4.742 19.322,11.187 25.424,19.659 5.761,8.476 8.814,18.307 8.814,29.153 0,2.711 0,4.747 -0.337,6.102l-44.071 0c0.677,-7.795 -1.697,-14.236 -6.781,-18.983 -5.085,-4.746 -12.881,-7.12 -22.713,-7.12 -8.134,0 -14.912,1.697 -19.998,5.085 -5.084,3.729 -7.8,8.476 -7.8,14.24 0,5.761 3.053,10.507 8.815,14.237 5.764,3.728 14.916,8.134 27.121,12.542 12.202,4.747 22.033,9.153 29.491,12.882 7.12,4.067 13.561,9.492 18.983,16.272 5.423,7.12 8.139,15.592 8.139,26.103 0,11.525 -3.392,21.695 -10.512,30.167 -7.117,8.476 -16.61,15.258 -28.815,19.663 -12.201,4.409 -26.099,6.778 -41.355,6.778zm184.751 0c-13.9,0 -26.104,-2.369 -37.291,-7.115 -11.188,-4.41 -20.001,-10.85 -26.442,-19.326 -6.44,-8.134 -9.828,-17.624 -9.828,-28.135 0,-1.694 0.338,-4.067 0.677,-7.797l46.103 0c-0.679,7.797 1.694,14.237 7.117,18.984 5.423,5.085 13.223,7.459 23.051,7.459 9.156,0 16.613,-1.695 22.712,-5.086 5.765,-3.049 8.815,-7.796 8.815,-14.237 0,-5.764 -2.712,-10.168 -8.135,-13.56 -5.764,-3.391 -14.578,-7.12 -26.442,-11.525 -11.863,-4.409 -22.032,-8.476 -29.832,-12.543 -7.796,-4.067 -14.575,-9.831 -20.34,-16.948 -5.76,-7.12 -8.472,-16.272 -8.472,-27.459 0,-11.187 3.388,-21.019 9.828,-29.494 6.441,-8.473 15.255,-15.256 26.784,-19.998 11.525,-4.747 24.744,-7.12 39.66,-7.12 14.237,0 26.78,2.373 37.629,7.12 10.846,4.742 19.322,11.187 25.424,19.659 5.761,8.476 8.813,18.307 8.813,29.153 0,2.711 0,4.747 -0.337,6.102l-44.069 0c0.676,-7.795 -1.697,-14.236 -6.783,-18.983 -5.084,-4.746 -12.881,-7.12 -22.712,-7.12 -8.134,0 -14.913,1.697 -19.998,5.085 -5.085,3.729 -7.799,8.476 -7.799,14.24 0,5.761 3.053,10.507 8.813,14.237 5.765,3.728 14.917,8.134 27.122,12.542 12.201,4.747 22.033,9.153 29.491,12.882 7.12,4.067 13.56,9.492 18.983,16.272 5.423,7.12 8.138,15.592 8.138,26.103 0,11.525 -3.391,21.695 -10.511,30.167 -7.117,8.476 -16.61,15.258 -28.815,19.663 -12.202,4.409 -26.1,6.778 -41.354,6.778zm172.544 -213.223c-7.458,0 -13.56,-2.034 -17.966,-6.44 -4.408,-4.408 -6.778,-9.831 -6.778,-16.272 0,-9.151 3.387,-16.951 10.507,-23.391 6.779,-6.441 14.917,-9.491 24.068,-9.491 7.117,0 13.22,2.032 17.628,6.441 4.406,4.405 6.779,9.831 6.779,16.271 0,9.153 -3.391,16.611 -10.17,23.051 -6.778,6.441 -14.916,9.831 -24.068,9.831zm19.664 22.371l-33.224 187.804 -47.796 0 33.221 -187.804 47.799 0zm86.782 190.852c-13.899,0 -26.103,-2.369 -37.29,-7.115 -11.187,-4.41 -20.001,-10.85 -26.442,-19.326 -6.441,-8.134 -9.829,-17.624 -9.829,-28.135 0,-1.694 0.339,-4.067 0.677,-7.797l46.104 0c-0.679,7.797 1.694,14.237 7.117,18.984 5.423,5.085 13.222,7.459 23.051,7.459 9.155,0 16.614,-1.695 22.712,-5.086 5.764,-3.049 8.814,-7.796 8.814,-14.237 0,-5.764 -2.711,-10.168 -8.134,-13.56 -5.764,-3.391 -14.578,-7.12 -26.442,-11.525 -11.863,-4.409 -22.033,-8.476 -29.833,-12.543 -7.795,-4.067 -14.574,-9.831 -20.339,-16.948 -5.76,-7.12 -8.472,-16.272 -8.472,-27.459 0,-11.187 3.388,-21.019 9.829,-29.494 6.44,-8.473 15.254,-15.256 26.782,-19.998 11.526,-4.747 24.744,-7.12 39.661,-7.12 14.237,0 26.779,2.373 37.629,7.12 10.846,4.742 19.321,11.187 25.424,19.659 5.76,8.476 8.813,18.307 8.813,29.153 0,2.711 0,4.747 -0.337,6.102l-44.07 0c0.676,-7.795 -1.697,-14.236 -6.782,-18.983 -5.085,-4.746 -12.881,-7.12 -22.713,-7.12 -8.134,0 -14.912,1.697 -19.998,5.085 -5.084,3.729 -7.799,8.476 -7.799,14.24 0,5.761 3.053,10.507 8.815,14.237 5.764,3.728 14.915,8.134 27.121,12.542 12.201,4.747 22.032,9.153 29.49,12.882 7.12,4.067 13.561,9.492 18.984,16.272 5.423,7.12 8.138,15.592 8.138,26.103 0,11.525 -3.392,21.695 -10.512,30.167 -7.117,8.476 -16.61,15.258 -28.815,19.663 -12.201,4.409 -26.099,6.778 -41.354,6.778zm176.953 -61.017c-0.341,1.356 -0.341,3.053 -0.341,5.423 0,4.408 1.355,7.8 4.071,9.494 2.37,2.035 6.778,3.05 12.881,3.05l22.371 0 -7.117 40.002 -30.171 0c-33.899,0 -50.847,-14.237 -50.847,-42.376 0,-5.423 0.338,-10.846 1.355,-15.93l15.93 -90.513 -22.371 0 6.78 -38.985 22.712 0 8.134 -46.439 47.798 0 -8.134 46.439 41.696 0 -6.782 38.985 -42.034 0 -15.931 90.85zm181.698 -132.883c24.068,0 43.051,6.44 56.949,19.662 13.899,13.22 21.019,31.185 21.019,53.559 0,7.12 -0.68,13.561 -1.694,19.323 -1.355,6.781 -2.714,12.542 -4.408,17.627l-137.289 0c-0.342,1.697 -0.342,3.729 -0.342,6.782 0,11.863 3.391,21.015 10.512,27.456 6.778,6.782 15.929,10.169 27.116,10.169 9.494,0 17.629,-2.031 24.749,-6.44 6.778,-4.068 12.201,-9.491 16.609,-16.272l51.186 0c-8.472,17.969 -21.356,32.882 -38.642,44.407 -17.628,11.867 -37.629,17.627 -59.666,17.627 -24.068,0 -43.052,-6.778 -57.626,-20.338 -14.578,-13.558 -21.695,-31.865 -21.695,-55.253 0,-6.783 0.677,-13.9 2.032,-21.357 3.391,-19.325 10.511,-36.612 21.019,-51.19 10.507,-14.574 23.388,-26.1 38.985,-33.9 15.592,-7.795 32.543,-11.862 51.186,-11.862zm29.152 81.355c0.342,-3.728 0.68,-6.098 0.68,-7.795 0,-10.846 -3.391,-19.321 -10.508,-25.424 -7.12,-6.103 -16.271,-9.153 -27.459,-9.153 -11.866,0 -22.713,3.73 -32.206,11.189 -9.49,7.795 -16.272,17.965 -19.998,31.183l89.491 0zm201.698 -81.018c19.325,0 34.918,5.085 46.105,15.597 11.187,10.507 16.609,25.761 16.609,45.083 0,7.12 -0.678,13.898 -1.694,19.663l-19.662 110.172 -47.119 0 18.304 -103.731c0.679,-4.068 1.018,-8.135 1.018,-11.864 0,-11.187 -3.05,-20.001 -8.814,-25.765 -6.103,-5.762 -14.575,-8.814 -25.762,-8.814 -12.543,0 -23.393,3.728 -32.206,11.187 -9.152,7.796 -14.913,18.645 -17.966,32.882l-18.646 106.105 -47.794 0 33.22 -187.804 47.798 0 -4.07 23.054c7.8,-7.795 16.951,-14.24 27.459,-18.982 10.507,-4.409 21.694,-6.783 33.22,-6.783zm91.188 96.615c3.391,-19.325 10.17,-36.612 20.681,-51.19 10.507,-14.574 23.388,-25.761 38.984,-33.9 15.255,-7.795 32.203,-11.862 50.169,-11.862 23.392,0 41.696,5.764 54.919,17.289 13.218,11.526 20.338,27.797 22.032,49.154l-51.186 0c-1.359,-8.137 -4.747,-14.578 -10.511,-19.324 -5.761,-4.406 -13.219,-6.78 -22.713,-6.78 -13.557,0 -25.085,4.747 -34.575,14.575 -9.832,9.832 -16.272,24.072 -19.322,42.038 -1.017,6.44 -1.697,11.863 -1.697,16.272 0,12.881 3.053,22.712 9.494,29.49 6.44,7.121 15.254,10.509 26.441,10.509 18.984,0 32.882,-8.473 42.034,-25.763l51.185 0c-8.809,20.34 -22.032,36.611 -39.322,48.475 -17.628,11.867 -37.966,17.965 -60.679,17.965 -23.726,0 -42.71,-6.778 -56.609,-20.338 -14.241,-13.219 -21.356,-31.526 -21.356,-54.577 0,-7.117 0.675,-14.237 2.031,-22.033zm260.684 -116.275c-7.459,0 -13.561,-2.034 -17.966,-6.44 -4.408,-4.408 -6.779,-9.831 -6.779,-16.272 0,-9.151 3.388,-16.951 10.508,-23.391 6.778,-6.441 14.917,-9.491 24.068,-9.491 7.117,0 13.219,2.032 17.628,6.441 4.404,4.405 6.778,9.831 6.778,16.271 0,9.153 -3.391,16.611 -10.169,23.051 -6.779,6.441 -14.917,9.831 -24.068,9.831zm19.662 22.371l-33.223 187.804 -47.795 0 33.22 -187.804 47.798 0zm17.967 93.224c3.39,-18.984 10.169,-35.932 20.338,-50.51 9.832,-14.574 22.037,-26.1 36.612,-33.9 14.577,-7.795 29.833,-11.862 45.767,-11.862 13.898,0 25.761,2.711 35.593,8.475 9.49,5.761 16.61,12.881 21.015,21.357l4.746 -26.784 47.799 0 -33.22 187.804 -47.798 0 5.084 -27.46c-7.458,8.814 -16.951,15.934 -28.815,21.695 -11.863,6.102 -25.085,8.813 -38.984,8.813 -13.898,0 -26.1,-3.048 -36.612,-9.489 -10.507,-6.103 -18.983,-14.916 -24.744,-26.441 -5.764,-11.187 -8.814,-24.407 -8.814,-39.661 0,-7.12 0.677,-14.241 2.033,-22.037zm147.462 0.68c1.017,-5.764 1.355,-10.17 1.355,-12.881 0,-13.223 -3.728,-23.731 -11.525,-31.188 -7.796,-7.458 -17.627,-11.188 -29.491,-11.188 -8.814,0 -17.29,2.035 -25.427,6.441 -8.473,4.409 -15.593,10.507 -21.695,18.645 -6.103,8.476 -10.17,18.304 -12.201,29.491 -0.68,4.409 -1.019,8.476 -1.019,12.206 0,13.56 3.73,24.068 11.526,31.863 7.796,7.797 17.289,11.864 29.153,11.864 8.814,0 17.29,-2.37 25.761,-6.778 8.477,-4.406 15.597,-10.508 21.7,-18.984 5.76,-8.476 9.827,-18.304 11.863,-29.491zm169.833 -156.952l-44.407 250.852 -47.795 0 44.408 -250.852 47.794 0z"/>
  </g>
 </g>
</svg>
